[IMG]http://www.shotpix.com/images/19930864403369261911.png[/IMG]

General
Complete name                            : Drake - Started From The Bottom [Explicit] 1080p [Sbyky].mp4
Format                                   : MPEG-4
Format profile                           : Base Media / Version 2
Codec ID                                 : mp42
File size                                : 221 MiB
Duration                                 : 5mn 20s
Overall bit rate mode                    : Variable
Overall bit rate                         : 5 783 Kbps
Encoded date                             : UTC 2013-04-08 06:49:45
Tagged date                              : UTC 2013-04-08 06:49:45

Video
ID                                       : 1
Format                                   : AVC
Format/Info                              : Advanced Video Codec
Format profile                           : High@L4.0
Format settings, CABAC                   : Yes
Format settings, ReFrames                : 1 frame
Codec ID                                 : avc1
Codec ID/Info                            : Advanced Video Coding
Duration                                 : 5mn 20s
Bit rate                                 : 5 589 Kbps
Maximum bit rate                         : 16.8 Mbps
Width                                    : 1 920 pixels
Height                                   : 1 080 pixels
Display aspect ratio                     : 16:9
Frame rate mode                          : Constant
Frame rate                               : 24.000 fps
Color space                              : YUV
Chroma subsampling                       : 4:2:0
Bit depth                                : 8 bits
Scan type                                : Progressive
Bits/(Pixel*Frame)                       : 0.112
Stream size                              : 214 MiB (97%)
Tagged date                              : UTC 2013-04-08 06:50:20

Audio
ID                                       : 2
Format                                   : AAC
Format/Info                              : Advanced Audio Codec
Format profile                           : LC
Codec ID                                 : 40
Duration                                 : 5mn 20s
Bit rate mode                            : Variable
Bit rate                                 : 192 Kbps
Maximum bit rate                         : 203 Kbps
Channel(s)                               : 2 channels
Channel positions                        : Front: L R
Sampling rate                            : 44.1 KHz
Compression mode                         : Lossy
Stream size                              : 7.34 MiB (3%)
Title                                    : IsoMedia File Produced by Google, 5-11-2011
Encoded date                             : UTC 2013-04-08 06:50:09
Tagged date                              : UTC 2013-04-08 06:50:20

Shared By Sbyky
[IMG]http://www.shotpix.com/images/93673952718153918459.gif[/IMG]
[IMG]http://www.shotpix.com/images/30389343628541615007.gif[/IMG]